<svg class="border shadow-md" viewBox="0 0 758.5600000000001 758.5600000000001" style="width: 758.56px; height: 758.56px;" xmlns="http://www.w3.org/2000/svg" preserveAspectRatio="none"><rect class="bg" id="bg" x="0" y="0" width="758.5600000000001" height="758.5600000000001" fill="#ffffff"/><path d="M 0 -75.85600000000001 L 0 -75.86&#10;                L 95.00 -37.93&#10;                L 151.71200000000002 -75.86 L 151.71200000000002 -75.86&#10;                L 223.71 -5.86&#10;                L 303.42400000000004 -75.86 L 303.42400000000004 -75.86&#10;                L 406.42 -28.86&#10;                L 455.1360000000001 -75.86 L 455.1360000000001 -75.86&#10;                L 551.14 -20.86&#10;                L 606.8480000000001 -75.86 L 606.8480000000001 -75.86&#10;                L 685.85 -37.93&#10;                L 758.5600000000001 -75.86 L 758.5600000000001 -75.86&#10;                L 809.13 -7.86&#10;                L 910.272 -75.86  V 758.56 H 0 V -75.86 Z" fill="#172554"/><path d="M 0 0 L 0 0.00&#10;                L 97.00 37.93&#10;                L 151.71200000000002 0.00 L 151.71200000000002 0.00&#10;                L 235.71 42.00&#10;                L 303.42400000000004 0.00 L 303.42400000000004 0.00&#10;                L 380.42 47.00&#10;                L 455.1360000000001 0.00 L 455.1360000000001 0.00&#10;                L 505.71 57.00&#10;                L 606.8480000000001 0.00 L 606.8480000000001 0.00&#10;                L 694.85 37.93&#10;                L 758.5600000000001 0.00 L 758.5600000000001 0.00&#10;                L 809.13 67.00&#10;                L 910.272 0.00  V 758.56 H 0 V 0.00 Z" fill="#1d2f61"/><path d="M 0 75.85600000000001 L 0 75.86&#10;                L 104.00 113.78&#10;                L 151.71200000000002 75.86 L 151.71200000000002 75.86&#10;                L 241.71 113.78&#10;                L 303.42400000000004 75.86 L 303.42400000000004 75.86&#10;                L 353.99 113.78&#10;                L 455.1360000000001 75.86 L 455.1360000000001 75.86&#10;                L 505.71 113.78&#10;                L 606.8480000000001 75.86 L 606.8480000000001 75.86&#10;                L 657.42 113.78&#10;                L 758.5600000000001 75.86 L 758.5600000000001 75.86&#10;                L 857.56 113.78&#10;                L 910.272 75.86  V 758.56 H 0 V 75.86 Z" fill="#23396e"/><path d="M 0 151.71200000000002 L 0 151.71&#10;                L 92.00 189.64&#10;                L 151.71200000000002 151.71 L 151.71200000000002 151.71&#10;                L 220.71 189.64&#10;                L 303.42400000000004 151.71 L 303.42400000000004 151.71&#10;                L 372.42 189.64&#10;                L 455.1360000000001 151.71 L 455.1360000000001 151.71&#10;                L 505.71 196.71&#10;                L 606.8480000000001 151.71 L 606.8480000000001 151.71&#10;                L 682.85 203.71&#10;                L 758.5600000000001 151.71 L 758.5600000000001 151.71&#10;                L 869.56 214.71&#10;                L 910.272 151.71  V 758.56 H 0 V 151.71 Z" fill="#29437b"/><path d="M 0 227.56800000000004 L 0 227.57&#10;                L 50.57 268.57&#10;                L 151.71200000000002 227.57 L 151.71200000000002 227.57&#10;                L 202.28 282.57&#10;                L 303.42400000000004 227.57 L 303.42400000000004 227.57&#10;                L 377.42 289.57&#10;                L 455.1360000000001 227.57 L 455.1360000000001 227.57&#10;                L 522.14 265.57&#10;                L 606.8480000000001 227.57 L 606.8480000000001 227.57&#10;                L 716.85 297.57&#10;                L 758.5600000000001 227.57 L 758.5600000000001 227.57&#10;                L 809.13 265.50&#10;                L 910.272 227.57  V 758.56 H 0 V 227.57 Z" fill="#2f4d88"/><path d="M 0 303.42400000000004 L 0 303.42&#10;                L 58.00 366.42&#10;                L 151.71200000000002 303.42 L 151.71200000000002 303.42&#10;                L 216.71 341.35&#10;                L 303.42400000000004 303.42 L 303.42400000000004 303.42&#10;                L 353.99 372.42&#10;                L 455.1360000000001 303.42 L 455.1360000000001 303.42&#10;                L 546.14 341.35&#10;                L 606.8480000000001 303.42 L 606.8480000000001 303.42&#10;                L 706.85 341.35&#10;                L 758.5600000000001 303.42 L 758.5600000000001 303.42&#10;                L 817.56 341.35&#10;                L 910.272 303.42  V 758.56 H 0 V 303.42 Z" fill="#355795"/><path d="M 0 379.28000000000003 L 0 379.28&#10;                L 50.57 441.28&#10;                L 151.71200000000002 379.28 L 151.71200000000002 379.28&#10;                L 202.28 437.28&#10;                L 303.42400000000004 379.28 L 303.42400000000004 379.28&#10;                L 353.99 417.21&#10;                L 455.1360000000001 379.28 L 455.1360000000001 379.28&#10;                L 557.14 452.28&#10;                L 606.8480000000001 379.28 L 606.8480000000001 379.28&#10;                L 657.42 447.28&#10;                L 758.5600000000001 379.28 L 758.5600000000001 379.28&#10;                L 870.56 417.21&#10;                L 910.272 379.28  V 758.56 H 0 V 379.28 Z" fill="#3b61a2"/><path d="M 0 455.1360000000001 L 0 455.14&#10;                L 112.00 493.06&#10;                L 151.71200000000002 455.14 L 151.71200000000002 455.14&#10;                L 202.28 505.14&#10;                L 303.42400000000004 455.14 L 303.42400000000004 455.14&#10;                L 359.42 493.06&#10;                L 455.1360000000001 455.14 L 455.1360000000001 455.14&#10;                L 505.71 510.14&#10;                L 606.8480000000001 455.14 L 606.8480000000001 455.14&#10;                L 657.42 498.14&#10;                L 758.5600000000001 455.14 L 758.5600000000001 455.14&#10;                L 818.56 493.06&#10;                L 910.272 455.14  V 758.56 H 0 V 455.14 Z" fill="#416baf"/><path d="M 0 530.9920000000001 L 0 530.99&#10;                L 50.57 568.92&#10;                L 151.71200000000002 530.99 L 151.71200000000002 530.99&#10;                L 202.28 600.99&#10;                L 303.42400000000004 530.99 L 303.42400000000004 530.99&#10;                L 379.42 568.92&#10;                L 455.1360000000001 530.99 L 455.1360000000001 530.99&#10;                L 546.14 568.92&#10;                L 606.8480000000001 530.99 L 606.8480000000001 530.99&#10;                L 692.85 570.99&#10;                L 758.5600000000001 530.99 L 758.5600000000001 530.99&#10;                L 809.13 575.99&#10;                L 910.272 530.99  V 758.56 H 0 V 530.99 Z" fill="#4775bc"/><path d="M 0 606.8480000000001 L 0 606.85&#10;                L 93.00 644.78&#10;                L 151.71200000000002 606.85 L 151.71200000000002 606.85&#10;                L 229.71 676.85&#10;                L 303.42400000000004 606.85 L 303.42400000000004 606.85&#10;                L 353.99 644.78&#10;                L 455.1360000000001 606.85 L 455.1360000000001 606.85&#10;                L 505.71 644.78&#10;                L 606.8480000000001 606.85 L 606.8480000000001 606.85&#10;                L 657.42 665.85&#10;                L 758.5600000000001 606.85 L 758.5600000000001 606.85&#10;                L 809.13 672.85&#10;                L 910.272 606.85  V 758.56 H 0 V 606.85 Z" fill="#4d7fc9"/><path d="M 0 682.7040000000001 L 0 682.70&#10;                L 104.00 744.70&#10;                L 151.71200000000002 682.70 L 151.71200000000002 682.70&#10;                L 206.71 720.63&#10;                L 303.42400000000004 682.70 L 303.42400000000004 682.70&#10;                L 373.42 725.70&#10;                L 455.1360000000001 682.70 L 455.1360000000001 682.70&#10;                L 509.14 737.70&#10;                L 606.8480000000001 682.70 L 606.8480000000001 682.70&#10;                L 672.85 720.63&#10;                L 758.5600000000001 682.70 L 758.5600000000001 682.70&#10;                L 853.56 720.63&#10;                L 910.272 682.70  V 758.56 H 0 V 682.70 Z" fill="#5389d6"/></svg>